PathFileType	4	(X/Y/Z)	Walk6.trc
DataRate	CameraRate	NumFrames	NumMarkers	Units	OrigDataRate	OrigDataStartFrame	OrigNumFrames
200.000000	200.000000	6	59	mm	200.000000	436	554
Frame#	Times		C7		CLAV		STRN		RBack		LASI		RASI		RACR1		RUA1		RElbow		RFA1		RWRR		RWRU		RCAR		LACR1		LFA1		LWRU		LCAR		RTH1		RTH3		RTH2		RTH4		RLFC		LTH1		LTH3		LTH2		LTH4		LLFC		LTB1		LTB3		LTB2		LTB4		LMMAL		LMT1		LToe		LFHD		RFHD		T10		LMT5		LPSI		RPSI		LLMAL		RBHD		RTB1		LUA1		LBHD		RTB2		RTB3		RToe		RTB4		LCAL		RElbowM		RCAL		RMT1		LElbow		LElbowM		LWRR		RLMAL		RMT5		RMMAL
			X1	Y1	Z1	X2	Y2	Z2	X3	Y3	Z3	X4	Y4	Z4	X5	Y5	Z5	X6	Y6	Z6	X7	Y7	Z7	X8	Y8	Z8	X9	Y9	Z9	X10	Y10	Z10	X11	Y11	Z11	X12	Y12	Z12	X13	Y13	Z13	X14	Y14	Z14	X15	Y15	Z15	X16	Y16	Z16	X17	Y17	Z17	X18	Y18	Z18	X19	Y19	Z19	X20	Y20	Z20	X21	Y21	Z21	X22	Y22	Z22	X23	Y23	Z23	X24	Y24	Z24	X25	Y25	Z25	X26	Y26	Z26	X27	Y27	Z27	X28	Y28	Z28	X29	Y29	Z29	X30	Y30	Z30	X31	Y31	Z31	X32	Y32	Z32	X33	Y33	Z33	X34	Y34	Z34	X35	Y35	Z35	X36	Y36	Z36	X37	Y37	Z37	X38	Y38	Z38	X39	Y39	Z39	X40	Y40	Z40	X41	Y41	Z41	X42	Y42	Z42	X43	Y43	Z43	X44	Y44	Z44	X45	Y45	Z45	X46	Y46	Z46	X47	Y47	Z47	X48	Y48	Z48	X49	Y49	Z49	X50	Y50	Z50	X51	Y51	Z51	X52	Y52	Z52	X53	Y53	Z53	X54	Y54	Z54	X55	Y55	Z55	X56	Y56	Z56	X57	Y57	Z57	X58	Y58	Z58	X59	Y59	Z59

436	2.18	321.37	1413	-4.3873	447.82	1337.6	-14.933	530.88	1115.3	-9.9334	284.52	1307.3	95.993	475.75	935.28	-139.95	481.88	941.14	135.23	404.53	1349.4	161.07	421.53	1141	228.54	428.4	1033.5	255.51	540.97	927.84	233.52	598.73	850.14	178.02	564.33	817.19	234.38	624.22	804.81	220.7	376.41	1347.7	-181.24	325.91	902.21	-257	277.46	789.75	-267.91	318.94	739.83	-265.81	373.73	738.98	172.73	350.42	555.96	129.37	426.53	649.86	117.84	361.44	647.42	148.82	324.81	451.04	114.6	413.69	729.37	-179.72	477.55	554.98	-155.09	511.12	663.61	-136.75	446.06	638.07	-170.23	507.42	455.82	-139.75	578.72	374.89	-71.595	620.28	191.76	-77.522	563.83	277.24	-140.4	601.34	282.19	-78.683	634.85	90.173	-43.613	764.81	87.299	-102.95	792.42	98.479	-132.26	486.48	1578	-47.367	496.34	1580.7	25.168	291.47	1127.5	-1.1676	724.61	55.426	-159.65	265.49	960.85	-52.345	268.38	973.77	61.701	611.99	68.203	-119.69	326.98	1542.3	68.853	309.6	325.41	34.97	326.43	1143.7	-224.34	316.2	1548.4	-57.641	262.36	244.71	102	227.86	158.99	26.509	350.15	26.594	68.792	268.74	241.84	31.005	585.92	22.987	-58.291	401.53	1004.5	176.75	103.36	41.643	27.892	305.73	37.153	31.92	291.56	1028.5	-233.56	283.85	1014.5	-163.82	335.07	781.82	-224.2	154.85	69.941	75.355	258.01	21.616	116.28	174.42	82.616	-4.6186
437	2.185	327.25	1412	-5.1819	453.71	1336.5	-15.579	536.73	1114.1	-10.323	290.28	1306.4	95.261	481.76	933.94	-140.12	487.23	940.34	135.22	410.26	1348.4	160.4	427.55	1140.1	227.94	434.69	1032.7	255.09	547.54	927.35	232.93	605.44	849.79	177.37	571.28	816.81	233.85	631.22	804.65	220.09	382.39	1346.5	-181.93	330.12	901.17	-257.35	281.23	788.88	-268.13	322.56	738.83	-266.08	378.56	738.25	172.56	354.34	555.3	129.24	430.81	648.8	117.43	365.84	646.72	148.66	327.97	450.49	114.42	419.11	728.01	-180.3	482.51	553.49	-155.35	516.18	662.04	-136.8	451.26	636.62	-170.67	513.07	454.66	-140.06	585.45	374.67	-71.701	630.15	192.14	-78.033	572.5	276.92	-140.87	609.71	282.31	-78.995	646.31	90.631	-44.278	776.74	89.616	-103.12	804.38	101.32	-132.13	492.1	1577.1	-48.167	501.91	1579.8	24.368	297.31	1126.5	-1.9046	737.2	57.223	-160.04	271.44	959.79	-53.18	274.07	972.77	60.844	624.11	68.464	-120.48	332.59	1541.2	67.993	311.89	324.79	34.939	331.59	1142.6	-224.82	321.87	1547.2	-58.512	263.8	244.59	101.92	228.8	159.03	26.494	350.17	26.552	68.878	270.34	241.56	30.959	598.43	22.627	-59.319	408	1003.4	176.24	103.48	42.544	27.856	305.79	37.099	31.887	296.25	1027.6	-233.95	288.59	1013.7	-164.23	338.92	780.77	-224.54	155.1	70.538	75.306	258.01	21.653	116.21	174.82	83.086	-4.6735
438	2.19	333.14	1411	-6.0127	459.63	1335.5	-16.266	542.6	1113	-10.762	296.06	1305.5	94.493	487.84	932.61	-140.26	492.61	939.55	135.18	416.03	1347.4	159.68	433.59	1139.3	227.3	440.95	1031.9	254.64	554.04	926.82	232.32	612.06	849.37	176.73	578.12	816.38	233.34	638.12	804.42	219.5	388.4	1345.3	-182.67	334.41	900.12	-257.71	285.08	788.01	-268.37	326.26	737.84	-266.35	383.42	737.53	172.38	358.29	554.64	129.11	435.13	647.76	117.02	370.28	646.03	148.49	331.17	449.97	114.24	424.68	726.73	-180.9	487.74	552.13	-155.58	521.41	660.63	-136.82	456.67	635.3	-171.09	518.89	453.6	-140.37	592.13	374.4	-71.786	639.51	192.43	-78.484	580.92	276.61	-141.32	617.8	282.37	-79.265	657.03	91.002	-44.876	787.88	91.575	-103.2	815.59	103.71	-131.92	497.73	1576.2	-48.999	507.5	1579	23.538	303.19	1125.5	-2.6751	748.95	58.729	-160.36	277.4	958.74	-54.032	279.8	971.77	59.97	635.44	68.7	-121.22	338.22	1540.2	67.104	314.21	324.19	34.918	336.82	1141.6	-225.36	327.55	1546	-59.412	265.27	244.51	101.86	229.76	159.12	26.5	350.19	26.519	68.952	271.96	241.31	30.927	610.03	22.335	-60.285	414.43	1002.4	175.7	103.6	43.51	27.853	305.84	37.045	31.855	301.01	1026.7	-234.38	293.37	1012.8	-164.67	342.85	779.73	-224.89	155.35	71.186	75.28	258	21.686	116.14	175.23	83.599	-4.7002
439	2.195	339.06	1410.1	-6.8791	465.57	1334.4	-16.994	548.48	1111.9	-11.251	301.88	1304.6	93.689	493.98	931.31	-140.4	498.02	938.77	135.12	421.83	1346.4	158.93	439.64	1138.5	226.62	447.18	1031.1	254.18	560.48	926.25	231.71	618.58	848.89	176.1	584.86	815.9	232.84	644.9	804.13	218.92	394.44	1344.1	-183.44	338.77	899.08	-258.1	289.02	787.14	-268.63	330.05	736.86	-266.64	388.3	736.82	172.18	362.29	554	128.96	439.5	646.72	116.63	374.75	645.35	148.3	334.42	449.45	114.05	430.41	725.57	-181.51	493.24	550.94	-155.8	526.83	659.41	-136.81	462.3	634.12	-171.51	524.89	452.65	-140.67	598.76	374.08	-71.854	648.38	192.61	-78.87	589.07	276.3	-141.73	625.61	282.33	-79.491	666.98	91.256	-45.401	798.22	93.123	-103.2	826.02	105.6	-131.64	503.37	1575.3	-49.862	513.1	1578.2	22.677	309.12	1124.5	-3.4778	759.85	59.885	-160.58	283.39	957.72	-54.898	285.58	970.79	59.082	645.96	68.873	-121.88	343.88	1539.1	66.188	316.56	323.61	34.908	342.11	1140.6	-225.94	333.25	1544.8	-60.339	266.77	244.46	101.81	230.73	159.24	26.529	350.21	26.493	69.012	273.61	241.09	30.91	620.71	22.087	-61.172	420.82	1001.4	175.14	103.72	44.548	27.885	305.88	36.991	31.824	305.84	1025.8	-234.85	298.2	1012	-165.15	346.86	778.7	-225.24	155.62	71.892	75.279	257.99	21.712	116.08	175.65	84.16	-4.6934
440	2.2	345	1409.1	-7.7806	471.54	1333.4	-17.764	554.39	1110.8	-11.791	307.73	1303.7	92.851	500.19	930.04	-140.52	503.46	937.99	135.02	427.67	1345.4	158.13	445.7	1137.6	225.92	453.37	1030.4	253.69	566.84	925.64	231.1	625	848.34	175.47	591.49	815.38	232.34	651.56	803.78	218.36	400.5	1342.9	-184.25	343.2	898.05	-258.51	293.05	786.28	-268.9	333.94	735.88	-266.94	393.23	736.11	171.97	366.33	553.36	128.8	443.92	645.69	116.23	379.26	644.67	148.09	337.73	448.96	113.86	436.32	724.53	-182.13	499.03	549.92	-155.99	532.46	658.37	-136.76	468.16	633.08	-171.91	531.07	451.8	-140.97	605.34	373.7	-71.905	656.74	192.66	-79.188	596.95	275.97	-142.09	633.12	282.19	-79.672	676.15	91.366	-45.847	807.76	94.214	-103.12	835.68	106.92	-131.29	509.03	1574.5	-50.756	518.72	1577.4	21.786	315.1	1123.6	-4.3098	769.88	60.643	-160.7	289.4	956.74	-55.775	291.41	969.83	58.184	655.66	68.954	-122.47	349.55	1538	65.245	318.95	323.05	34.909	347.47	1139.6	-226.57	338.97	1543.6	-61.293	268.3	244.46	101.78	231.72	159.41	26.584	350.22	26.476	69.058	275.28	240.91	30.91	630.45	21.864	-61.968	427.13	1000.5	174.57	103.84	45.666	27.957	305.93	36.939	31.796	310.73	1024.9	-235.34	303.09	1011.2	-165.66	350.95	777.69	-225.61	155.9	72.66	75.307	257.98	21.729	116.02	176.07	84.775	-4.6473
441	2.205	350.96	1408.1	-8.7168	477.54	1332.4	-18.576	560.32	1109.7	-12.383	313.61	1302.8	91.977	506.46	928.81	-140.65	508.94	937.21	134.88	433.54	1344.5	157.29	451.76	1136.8	225.19	459.53	1029.6	253.19	573.13	925.01	230.48	631.33	847.74	174.86	598	814.82	231.85	658.1	803.36	217.82	406.58	1341.8	-185.1	347.71	897.03	-258.94	297.16	785.42	-269.19	337.92	734.92	-267.24	398.21	735.42	171.74	370.43	552.74	128.63	448.39	644.68	115.84	383.82	644	147.86	341.11	448.48	113.66	442.42	723.64	-182.74	505.1	549.07	-156.17	538.31	657.54	-136.69	474.26	632.21	-172.28	537.44	451.06	-141.26	611.89	373.26	-71.942	664.59	192.57	-79.436	604.56	275.61	-142.42	640.36	281.95	-79.81	684.56	91.314	-46.211	816.51	94.812	-102.96	844.57	107.63	-130.86	514.69	1573.7	-51.679	524.35	1576.7	20.866	321.12	1122.6	-5.1682	779.05	60.963	-160.72	295.43	955.8	-56.658	297.28	968.88	57.28	664.54	68.919	-122.98	355.24	1536.9	64.276	321.38	322.52	34.921	352.9	1138.6	-227.24	344.7	1542.5	-62.27	269.88	244.5	101.77	232.73	159.62	26.666	350.24	26.464	69.089	276.98	240.77	30.928	639.24	21.655	-62.668	433.38	999.51	173.99	103.97	46.869	28.071	305.96	36.888	31.77	315.7	1024	-235.87	308.04	1010.5	-166.2	355.12	776.69	-225.97	156.19	73.497	75.369	257.97	21.738	115.97	176.49	85.448	-4.556
